TITLE ""
FILE "P1Q_t_0829-0838.mp3" MP3
  TRACK 01 AUDIO
    TITLE "P1Q_t_0829-0838_01"
    INDEX 01 00:00:00
  TRACK 02 AUDIO
    TITLE "P1Q_t_0829-0838_02"
    INDEX 01 00:00:10
  TRACK 03 AUDIO
    TITLE "P1Q_t_0829-0838_03"
    INDEX 01 00:01:43
  TRACK 04 AUDIO
    TITLE "P1Q_t_0829-0838_04"
    INDEX 01 00:01:65
  TRACK 05 AUDIO
    TITLE "P1Q_t_0829-0838_05"
    INDEX 01 00:03:36
  TRACK 06 AUDIO
    TITLE "P1Q_t_0829-0838_06"
    INDEX 01 00:03:60
  TRACK 07 AUDIO
    TITLE "P1Q_t_0829-0838_07"
    INDEX 01 00:07:63
  TRACK 08 AUDIO
    TITLE "P1Q_t_0829-0838_08"
    INDEX 01 00:08:33
  TRACK 09 AUDIO
    TITLE "P1Q_t_0829-0838_09"
    INDEX 01 00:09:50
  TRACK 10 AUDIO
    TITLE "P1Q_t_0829-0838_10"
    INDEX 01 00:09:74
  TRACK 11 AUDIO
    TITLE "P1Q_t_0829-0838_11"
    INDEX 01 00:13:03
  TRACK 12 AUDIO
    TITLE "P1Q_t_0829-0838_12"
    INDEX 01 00:13:25
  TRACK 13 AUDIO
    TITLE "P1Q_t_0829-0838_13"
    INDEX 01 00:17:32
  TRACK 14 AUDIO
    TITLE "P1Q_t_0829-0838_14"
    INDEX 01 00:18:04
  TRACK 15 AUDIO
    TITLE "P1Q_t_0829-0838_15"
    INDEX 01 00:19:21
  TRACK 16 AUDIO
    TITLE "P1Q_t_0829-0838_16"
    INDEX 01 00:19:43
  TRACK 17 AUDIO
    TITLE "P1Q_t_0829-0838_17"
    INDEX 01 00:21:10
  TRACK 18 AUDIO
    TITLE "P1Q_t_0829-0838_18"
    INDEX 01 00:21:32
  TRACK 19 AUDIO
    TITLE "P1Q_t_0829-0838_19"
    INDEX 01 00:26:43
  TRACK 20 AUDIO
    TITLE "P1Q_t_0829-0838_20"
    INDEX 01 00:27:15
  TRACK 21 AUDIO
    TITLE "P1Q_t_0829-0838_21"
    INDEX 01 00:28:09
  TRACK 22 AUDIO
    TITLE "P1Q_t_0829-0838_22"
    INDEX 01 00:28:32
  TRACK 23 AUDIO
    TITLE "P1Q_t_0829-0838_23"
    INDEX 01 00:32:51
  TRACK 24 AUDIO
    TITLE "P1Q_t_0829-0838_24"
    INDEX 01 00:32:71
  TRACK 25 AUDIO
    TITLE "P1Q_t_0829-0838_25"
    INDEX 01 00:36:34
  TRACK 26 AUDIO
    TITLE "P1Q_t_0829-0838_26"
    INDEX 01 00:37:06
  TRACK 27 AUDIO
    TITLE "P1Q_t_0829-0838_27"
    INDEX 01 00:38:15
  TRACK 28 AUDIO
    TITLE "P1Q_t_0829-0838_28"
    INDEX 01 00:38:38
  TRACK 29 AUDIO
    TITLE "P1Q_t_0829-0838_29"
    INDEX 01 00:42:07
  TRACK 30 AUDIO
    TITLE "P1Q_t_0829-0838_30"
    INDEX 01 00:42:26
  TRACK 31 AUDIO
    TITLE "P1Q_t_0829-0838_31"
    INDEX 01 00:47:47
  TRACK 32 AUDIO
    TITLE "P1Q_t_0829-0838_32"
    INDEX 01 00:48:17
  TRACK 33 AUDIO
    TITLE "P1Q_t_0829-0838_33"
    INDEX 01 00:49:42
  TRACK 34 AUDIO
    TITLE "P1Q_t_0829-0838_34"
    INDEX 01 00:49:64
  TRACK 35 AUDIO
    TITLE "P1Q_t_0829-0838_35"
    INDEX 01 00:52:17
  TRACK 36 AUDIO
    TITLE "P1Q_t_0829-0838_36"
    INDEX 01 00:52:40
  TRACK 37 AUDIO
    TITLE "P1Q_t_0829-0838_37"
    INDEX 01 00:58:10
  TRACK 38 AUDIO
    TITLE "P1Q_t_0829-0838_38"
    INDEX 01 00:58:57
  TRACK 39 AUDIO
    TITLE "P1Q_t_0829-0838_39"
    INDEX 01 01:00:12
  TRACK 40 AUDIO
    TITLE "P1Q_t_0829-0838_40"
    INDEX 01 01:00:32
  TRACK 41 AUDIO
    TITLE "P1Q_t_0829-0838_41"
    INDEX 01 01:02:49
  TRACK 42 AUDIO
    TITLE "P1Q_t_0829-0838_42"
    INDEX 01 01:02:68
  TRACK 43 AUDIO
    TITLE "P1Q_t_0829-0838_43"
    INDEX 01 01:07:67
  TRACK 44 AUDIO
    TITLE "P1Q_t_0829-0838_44"
    INDEX 01 01:08:39
  TRACK 45 AUDIO
    TITLE "P1Q_t_0829-0838_45"
    INDEX 01 01:09:74
  TRACK 46 AUDIO
    TITLE "P1Q_t_0829-0838_46"
    INDEX 01 01:10:21
  TRACK 47 AUDIO
    TITLE "P1Q_t_0829-0838_47"
    INDEX 01 01:12:27
  TRACK 48 AUDIO
    TITLE "P1Q_t_0829-0838_48"
    INDEX 01 01:12:47
  TRACK 49 AUDIO
    TITLE "P1Q_t_0829-0838_49"
    INDEX 01 01:17:70
  TRACK 50 AUDIO
    TITLE "P1Q_t_0829-0838_50"
    INDEX 01 01:18:38
  TRACK 51 AUDIO
    TITLE "P1Q_t_0829-0838_51"
    INDEX 01 01:19:57
  TRACK 52 AUDIO
    TITLE "P1Q_t_0829-0838_52"
    INDEX 01 01:20:03
  TRACK 53 AUDIO
    TITLE "P1Q_t_0829-0838_53"
    INDEX 01 01:24:17
  TRACK 54 AUDIO
    TITLE "P1Q_t_0829-0838_54"
    INDEX 01 01:24:38
  TRACK 55 AUDIO
    TITLE "P1Q_t_0829-0838_55"
    INDEX 01 01:29:26
  TRACK 56 AUDIO
    TITLE "P1Q_t_0829-0838_56"
    INDEX 01 01:29:75
  TRACK 57 AUDIO
    TITLE "P1Q_t_0829-0838_57"
    INDEX 01 01:31:17
  TRACK 58 AUDIO
    TITLE "P1Q_t_0829-0838_58"
    INDEX 01 01:31:39
  TRACK 59 AUDIO
    TITLE "P1Q_t_0829-0838_59"
    INDEX 01 01:32:44
  TRACK 60 AUDIO
    TITLE "P1Q_t_0829-0838_60"
    INDEX 01 01:32:63
  TRACK 61 AUDIO
    TITLE "P1Q_t_0829-0838_61"
    INDEX 01 01:37:65
